<?xml version="1.0" encoding="UTF-8"?>
<svg width="150" height="150" viewBox="0 0 150 150" xmlns="http://www.w3.org/2000/svg">
  <circle cx="75" cy="75" r="50" fill="#ffffff" stroke="#6fcf97" stroke-width="8"/>
  <path d="M75 25C47.4 25 25 47.4 25 75s22.4 50 50 50 50-22.4 50-50S102.6 25 75 25zm0 90c-22.1 0-40-17.9-40-40s17.9-40 40-40 40 17.9 40 40-17.9 40-40 40z" fill="#6fcf97"/>
  <path d="M60 55c-8.3 0-15 6.7-15 15v10c0 8.3 6.7 15 15 15h5v10l10-10h5c8.3 0 15-6.7 15-15V70c0-8.3-6.7-15-15-15H60z" fill="#6b21a8"/>
  <path d="M90 75c0 2.8-2.2 5-5 5s-5-2.2-5-5 2.2-5 5-5 5 2.2 5 5zM80 75c0 2.8-2.2 5-5 5s-5-2.2-5-5 2.2-5 5-5 5 2.2 5 5zM70 75c0 2.8-2.2 5-5 5s-5-2.2-5-5 2.2-5 5-5 5 2.2 5 5z" fill="white"/>
  <path d="M100 60c-1.7-1.7-3.5-3.2-5.5-4.5M105 70c-0.5-2.3-1.3-4.5-2.3-6.5M107 80c0-1.7-0.2-3.4-0.5-5" stroke="#ff4d4d" stroke-width="4" stroke-linecap="round"/>
</svg>
